<svg id="Layer_1" data-name="Layer 1" xmlns="http://www.w3.org/2000/svg" viewBox="0 0 1312.8 151.5"><defs><style>.cls-1{fill:#c8102e;}</style></defs><title>logo</title><g id="_Group_" data-name="&lt;Group&gt;"><path id="_Path_" data-name="&lt;Path&gt;" class="cls-1" d="M73.91,0h4.9a77,77,0,0,1,21.8,4,73.14,73.14,0,0,1,28.7,18.3c-4.3,4.2-8.7,8.4-13,12.6a56,56,0,0,0-28.7-15.6c-14.5-2.8-30.2-.5-42.6,7.6-11.2,7.5-20.6,18.5-24.6,31.7a60.79,60.79,0,0,0-.5,32.5c3.7,13.9,13.3,25.6,25.2,33.5s26.6,10.1,40.4,8a56,56,0,0,0,30.8-15.7l13,12.4c-10.9,11-25.2,18.9-40.7,21.2a87.74,87.74,0,0,1-11.5,1h-3.3a72.31,72.31,0,0,1-29.3-6.5A78.31,78.31,0,0,1,7,107.8c-7-14.7-8.6-31.7-5.5-47.6,3.4-17.8,14-33.7,28.2-44.8A73.39,73.39,0,0,1,73.91,0Z"/><g id="_Group_2" data-name="&lt;Group&gt;"><path id="_Compound_Path_" data-name="&lt;Compound Path&gt;" class="cls-1" d="M359.81,3.6c0,18.5,0,37,.1,55.4-6.3-9.2-15.3-16.8-26.1-20.3a55.85,55.85,0,0,0-35,.3c-11.9,4.2-21.4,13.3-27.9,23.9-7.2,11.7-9.6,26-7.8,39.6a57,57,0,0,0,14.4,31.1c6.4,7.3,14.7,13.1,24.1,15.7a63.58,63.58,0,0,0,12.2,2.1h4.3a49.81,49.81,0,0,0,26.5-7.9,58.58,58.58,0,0,0,15.2-15v19.4H378V3.6h-18.2Zm-1.7,101.6c-2.6,8.8-8.7,16.4-16.2,21.6-8.8,6-20.1,7.6-30.5,5.5-15.4-3.1-28.1-16.6-30.5-32.2-1.3-9,0-18.5,4.9-26.3,6.1-10.1,16.6-17.7,28.4-19.2h0c9.3-1.3,19.3.5,27.2,5.8s14.4,13.4,17,22.8A41.08,41.08,0,0,1,358.11,105.2Z"/></g><g id="_Group_3" data-name="&lt;Group&gt;"><path id="_Compound_Path_2" data-name="&lt;Compound Path&gt;" class="cls-1" d="M499.51,68.3c-8.3-16.3-24.4-28.8-42.6-31.4-13-1.9-26.7,0-38,6.6A59,59,0,0,0,396.81,66c-6.4,11.2-8.2,24.6-6.3,37.2a53.78,53.78,0,0,0,11.2,25.6c6.5,8,14.7,14.7,24.3,18.6a58.16,58.16,0,0,0,19.7,4H449a58.12,58.12,0,0,0,44.5-22.8c-4.9-3.3-10-6.5-15.1-9.8a39.28,39.28,0,0,1-20.7,13.3,40.23,40.23,0,0,1-28.5-3.4c-10-5.3-17.9-14.9-20.1-26.1h95.5A58,58,0,0,0,499.51,68.3Zm-90.6,16.1h0c3.5-17.5,20.8-30.3,38.2-30.1,17.7-.4,35.1,12.6,38.8,30.1h-77Z"/></g><path id="_Path_2" data-name="&lt;Path&gt;" class="cls-1" d="M147.51,64c7.4-11.7,18.6-21.1,31.8-25.3V58.2a42,42,0,0,0-16.6,15.5c-4.8,7.6-6.2,16.9-5,25.7,2.1,15.6,14.5,29.3,29.8,32.6,10.6,2.4,22.3.9,31.3-5.3,8.1-5.6,14.6-14.1,16.8-23.8a39.45,39.45,0,0,0-2.9-26.4,43,43,0,0,0-17.2-17.9c-0.1-6.6,0-13.2,0-19.8A60.12,60.12,0,0,1,247.41,65c7.1,12,8.9,26.7,6.3,40.3-4.9,25.5-29.3,45.7-55.3,45.9h-3.3a55.39,55.39,0,0,1-35.3-13.7c-9.3-8-16.5-18.8-19.1-30.9-3-14.3-1.1-30,6.8-42.6h0Z"/><g id="_Group_4" data-name="&lt;Group&gt;"><path id="_Compound_Path_3" data-name="&lt;Compound Path&gt;" class="cls-1" d="M612.51,101.9c-4.2-6.3-8.1-13-13.8-18.2,10.4-4.3,19.8-11.9,24.8-22.1a40.57,40.57,0,0,0-14.1-51.5,49.86,49.86,0,0,0-28.4-9h-64.4v149h22.3V86.9h21c6.8,0.2,13.8,1.8,19,6.3,3,2.5,4.9,6,7.1,9.2l30.9,47.7c8.9,0.1,17.9,0,26.9,0Q628.21,126.1,612.51,101.9Zm-33.8-37.4H539V23.6c13.9-.1,27.7,0,41.6,0a26.86,26.86,0,0,1,20.1,8.7c5.9,6.5,5.7,17.4-.2,23.8C595,62,586.71,64.8,578.71,64.5Z"/></g><polygon id="_Path_3" data-name="&lt;Path&gt;" class="cls-1" points="653.01 1.2 758.41 1.2 758.41 23.6 675.31 23.6 675.31 64.5 740.41 64.5 740.41 86.8 675.31 86.8 675.31 127.8 758.41 127.8 758.41 150.1 653.01 150.1 653.01 1.2"/><g id="_Group_5" data-name="&lt;Group&gt;"><path id="_Compound_Path_4" data-name="&lt;Compound Path&gt;" class="cls-1" d="M899.81,69.3a71.81,71.81,0,0,0-9.3-30.7c-4.9-8.6-11.8-15.9-19.5-22.1a69.83,69.83,0,0,0-34.7-14.7,137,137,0,0,0-18.1-.7h-48.7V150c19.4,0,38.9.1,58.4,0a70,70,0,0,0,44-16.3,81,81,0,0,0,21.8-27.8C898.91,94.6,900.71,81.8,899.81,69.3Zm-29,32.7c-7.4,12.3-19.7,21.9-33.8,24.7-6.6,1.4-13.3,1.1-20,1.1h-25.2V23.6c8.4-.1,16.8,0,25.2,0,6.6,0.1,13.4-.4,19.9,1.1A50.51,50.51,0,0,1,864,40.4a49.44,49.44,0,0,1,12.9,25.4C879,78,877.21,91.2,870.81,102Z"/></g><rect id="_Path_4" data-name="&lt;Path&gt;" class="cls-1" x="188.41" y="23.5" width="18.1" height="70.6"/></g><path class="cls-1" d="M1026.21,52h-13.12l-4.26,19.8h12.66a13.47,13.47,0,0,0,8.06-2.47A11.55,11.55,0,0,0,1034,62a23.67,23.67,0,0,0,.46-3.45Q1034.5,52,1026.21,52Z"/><path class="cls-1" d="M946.33,1.17v149H1312.8V1.17H946.33Zm98.35,80.68q-8.81,6.39-24,6.39h-15l-5.29,24.86a3.39,3.39,0,0,1-1.21,2.07A3.43,3.43,0,0,1,997,116H980.52a2.43,2.43,0,0,1-2-.81,2.37,2.37,0,0,1-.46-2.07L994,38.4a3.72,3.72,0,0,1,3.57-3h30.85q12.89,0,20.77,5.29t7.88,15.42a27.6,27.6,0,0,1-.69,6Q1053.49,75.46,1044.69,81.85Zm73.6,19-2.53,12.2a3.29,3.29,0,0,1-1.27,2.07,3.66,3.66,0,0,1-2.3.81h-53.4a2.43,2.43,0,0,1-2-.81,2.37,2.37,0,0,1-.46-2.07l16-74.81a3.39,3.39,0,0,1,1.21-2.07,3.43,3.43,0,0,1,2.25-.81h16a2.44,2.44,0,0,1,2,.81,2.37,2.37,0,0,1,.46,2.07L1081.46,97.9H1116a2.36,2.36,0,0,1,2,.86A2.27,2.27,0,0,1,1118.29,100.9Zm66.24,8.57q-9.61,7.66-26.64,7.65-13.7,0-22.16-6t-8.46-17.9a38.34,38.34,0,0,1,.92-7.83l10-47a3.63,3.63,0,0,1,1.21-2.13,3.29,3.29,0,0,1,2.25-.86h15.77a2.21,2.21,0,0,1,1.9.86,2.66,2.66,0,0,1,.4,2.13l-10,46.73a28.93,28.93,0,0,0-.58,5.06q0,4.72,2.53,7t7.94,2.24q13.35,0,16.46-14.27l10-46.73a3.63,3.63,0,0,1,1.21-2.13,3.29,3.29,0,0,1,2.24-.86h15.77a2.2,2.2,0,0,1,1.9.86,2.66,2.66,0,0,1,.4,2.13l-9.9,47Q1194.14,101.82,1184.53,109.47Zm96.85-52.66a3.79,3.79,0,0,1-.92,1.78,2.25,2.25,0,0,1-1.73.75h-16.34a3.43,3.43,0,0,1-3.45-2.07,5.53,5.53,0,0,0-2.71-4.09,11.45,11.45,0,0,0-6.5-1.67,16.16,16.16,0,0,0-8,1.73,7.68,7.68,0,0,0-3.86,5.06,5.46,5.46,0,0,0-.11,1.27q0,2.76,3.17,4.43t11.34,3.4q13,2.42,19,7.25a15.61,15.61,0,0,1,6,12.78,24.58,24.58,0,0,1-.58,5.64,26.76,26.76,0,0,1-12.37,18q-9.84,6.1-26.3,6.1a49.24,49.24,0,0,1-17.49-2.76q-7.25-2.76-10.93-7.42a16.22,16.22,0,0,1-3.68-10.3,24.21,24.21,0,0,1,.23-2.76,2.5,2.5,0,0,1,1-1.73,3,3,0,0,1,1.9-.69h15.42a4.38,4.38,0,0,1,2.24.46,5.73,5.73,0,0,1,1.55,1.61,8.54,8.54,0,0,0,3.74,4.55,14.45,14.45,0,0,0,7.77,1.78,22.89,22.89,0,0,0,10.07-1.9q3.85-1.9,4.66-5.24a5.54,5.54,0,0,0,.12-1.27q0-2.88-3.57-4.49t-12.89-3.68q-22.9-4.72-22.9-20.26a24.14,24.14,0,0,1,.69-5.64,26.23,26.23,0,0,1,11.57-17q9.26-6.16,23.88-6.16A37.76,37.76,0,0,1,1267,37.36a28.59,28.59,0,0,1,10.76,7.88q3.86,4.78,3.86,9.61A13.83,13.83,0,0,1,1281.38,56.82Z"/></svg>