<svg id="Layer_1" data-name="Layer 1" xmlns="http://www.w3.org/2000/svg" xmlns:xlink="http://www.w3.org/1999/xlink" viewBox="0 0 1316.41 699.96"><defs><style>.cls-1{fill:url(#radial-gradient);}</style><radialGradient id="radial-gradient" cx="642.73" cy="370" r="527.12" gradientUnits="userSpaceOnUse"><stop offset="0" stop-color="#141e30"/><stop offset="0.5" stop-color="#141e30"/><stop offset="1" stop-color="#141e30" stop-opacity="0"/></radialGradient></defs><title>text-bg</title><path class="cls-1" d="M-8.61,118.3h-3.5V21.7h3.5v96.6Z" transform="translate(15.47 -20.02)"/><path class="cls-1" d="M98.9,21.7v94.5a1.86,1.86,0,0,1-2.1,2.1H90.92a2.7,2.7,0,0,1-2.52-1.54L43.6,34.3Q42.76,32.76,41,29.61t-2.59-4.83h-3.5V118.3h-3.5V23.8a1.86,1.86,0,0,1,2.1-2.1H39a2.54,2.54,0,0,1,2.52,1.54l43.82,80.64,6.16,11.34H95.4V21.7h3.5Z" transform="translate(15.47 -20.02)"/><path class="cls-1" d="M206.42,21.7v94.5a1.86,1.86,0,0,1-2.1,2.1h-5.88a2.7,2.7,0,0,1-2.52-1.54L151.12,34.3q-0.84-1.54-2.59-4.69t-2.59-4.83h-3.5V118.3h-3.5V23.8a1.86,1.86,0,0,1,2.1-2.1h5.46A2.54,2.54,0,0,1,149,23.24l43.82,80.64L199,115.22h3.92V21.7h3.5Z" transform="translate(15.47 -20.02)"/><path class="cls-1" d="M250.59,31.15Q258.5,20,278.38,20t27.79,11.13q7.91,11.13,7.91,38.85t-7.91,38.85Q298.26,120,278.38,120t-27.79-11.13Q242.68,97.72,242.68,70T250.59,31.15Zm52.78,2.45q-7.07-10.36-25-10.36t-25,10.36Q246.32,44,246.32,70t7.07,36.4q7.07,10.36,25,10.36t25-10.36Q310.44,96,310.44,70T303.37,33.6Z" transform="translate(15.47 -20.02)"/><path class="cls-1" d="M414.46,21.7l-33,95.34a1.89,1.89,0,0,1-1.82,1.26h-5.88A1.88,1.88,0,0,1,371.9,117l-33-95.34h3.78l28.56,83.16q1.68,4.62,3.5,10.36h3.92q2.24-7,3.5-10.5l28.56-83h3.78Z" transform="translate(15.47 -20.02)"/><path class="cls-1" d="M489.78,83H443.72L431,118.3H427.2L461.92,23a1.74,1.74,0,0,1,1.82-1.26h6A1.74,1.74,0,0,1,471.58,23L506.3,118.3h-3.78Zm-1.12-3.08L471.58,32.62l-2.8-7.84h-4.06l-2.8,7.84L444.84,79.94h43.82Z" transform="translate(15.47 -20.02)"/><path class="cls-1" d="M586.38,24.78h-34V118.3h-3.5V24.78H515V21.7h71.4v3.08Z" transform="translate(15.47 -20.02)"/><path class="cls-1" d="M670.1,115.22l0.28,2.52q-13.72.56-41.16,0.56A13.88,13.88,0,0,1,614.94,104V36A13.88,13.88,0,0,1,629.22,21.7q27.44,0,41.16.56l-0.28,2.52H629.92a11,11,0,0,0-11.48,11.48V65.1h45.92V68H618.44v35.7a11,11,0,0,0,11.48,11.48H670.1Z" transform="translate(15.47 -20.02)"/><path class="cls-1" d="M757.6,78.26H729.88v26.18h-2.94V78.26H699.22V75.18H726.8V49H730V75.18H757.6v3.08Z" transform="translate(15.47 -20.02)"/><path class="cls-1" d="M850.14,114.94l0.84,2.52A119.9,119.9,0,0,1,824.66,120q-19.88,0-27.79-11.13T789,70q0-27.72,7.91-38.85T824.66,20A109.9,109.9,0,0,1,849,22.4l-0.84,2.52a149.69,149.69,0,0,0-23.52-1.68q-17.92,0-25,10.36T792.6,70q0,26,7.07,36.4t25,10.36A152,152,0,0,0,850.14,114.94Z" transform="translate(15.47 -20.02)"/><path class="cls-1" d="M944.78,118.3h-3.92L930.5,87.78Q926,74.9,914.68,74.9q-19.18,0-28.7-.56v44h-3.5V21.7q11.2-1.12,30.94-1.12,15.68,0,21.77,5.67t6.09,21.49q0,12.88-4.13,18.62T923.5,73.5v0.56q6.72,2.1,10.64,13.3ZM886,71.68h27.44q13.58-.28,18.9-5.25t5.32-18.69q0-14-5.32-19t-18.9-5q-17.92,0-27.44.28v47.6Z" transform="translate(15.47 -20.02)"/><path class="cls-1" d="M1033,115.22l0.28,2.52q-13.72.56-41.16,0.56A13.88,13.88,0,0,1,977.82,104V36A13.88,13.88,0,0,1,992.1,21.7q27.44,0,41.16.56L1033,24.78H992.8a11,11,0,0,0-11.48,11.48V65.1h45.92V68H981.32v35.7a11,11,0,0,0,11.48,11.48H1033Z" transform="translate(15.47 -20.02)"/><path class="cls-1" d="M1117.82,83h-46.06L1059,118.3h-3.78L1090,23a1.74,1.74,0,0,1,1.82-1.26h6a1.74,1.74,0,0,1,1.82,1.26l34.72,95.34h-3.78Zm-1.12-3.08-17.08-47.32-2.8-7.84h-4.06l-2.8,7.84-17.08,47.32h43.82Z" transform="translate(15.47 -20.02)"/><path class="cls-1" d="M1214.42,24.78h-34V118.3h-3.5V24.78H1143V21.7h71.4v3.08Z" transform="translate(15.47 -20.02)"/><path class="cls-1" d="M1298.13,115.22l0.28,2.52q-13.72.56-41.16,0.56A13.88,13.88,0,0,1,1243,104V36a13.88,13.88,0,0,1,14.28-14.28q27.44,0,41.16.56l-0.28,2.52H1258a11,11,0,0,0-11.48,11.48V65.1h45.92V68h-45.92v35.7A11,11,0,0,0,1258,115.22h40.18Z" transform="translate(15.47 -20.02)"/><path class="cls-1" d="M-5.39,238.3V141.7q16.66-1.26,32.06-1.26,19.46,0,27.3,11.13T61.81,190q0,27.3-7.84,38.43t-27.3,11.13Q11.55,239.56-5.39,238.3Zm3.5-94.08v91.7q25.2,0.42,28.56.42,17.5,0,24.5-10.29t7-36q0-25.76-7-36.05t-24.5-10.29Q15.19,143.66-1.89,144.22Z" transform="translate(15.47 -20.02)"/><path class="cls-1" d="M152.39,235.22l0.28,2.52q-13.72.56-41.16,0.56A13.88,13.88,0,0,1,97.23,224V156a13.88,13.88,0,0,1,14.28-14.28q27.44,0,41.16.56l-0.28,2.52H112.21a11,11,0,0,0-11.48,11.48V185.1h45.92V188H100.73v35.7a11,11,0,0,0,11.48,11.48h40.18Z" transform="translate(15.47 -20.02)"/><path class="cls-1" d="M221.41,192.66L200,189.72q-10.08-1.12-14.42-7t-4.34-17.78a46.8,46.8,0,0,1,1.61-13.65,12.89,12.89,0,0,1,5.74-7.56,23.14,23.14,0,0,1,8.75-3.08,91.54,91.54,0,0,1,13-.49q13.58,0.28,26.18,1.68l-0.42,2.66q-16.8-1.12-25.76-1.12-5.46,0-8.19.14a52.18,52.18,0,0,0-6.3.77,11.32,11.32,0,0,0-5.18,2,17.48,17.48,0,0,0-3.22,3.71,14.57,14.57,0,0,0-2.17,6,60.22,60.22,0,0,0-.56,9q0,10.64,3.5,15.47t11.76,6l21.42,2.94q10.64,1.26,15.05,7t4.41,18.34a42.33,42.33,0,0,1-1.33,11.41,21.14,21.14,0,0,1-3.5,7.42,13.21,13.21,0,0,1-6.16,4.13,35.26,35.26,0,0,1-8,1.82,103.86,103.86,0,0,1-10.43.42,246.64,246.64,0,0,1-28.56-1.54l0.42-2.66q14.56,1.12,28.28,1a89.78,89.78,0,0,0,12-.84,18.64,18.64,0,0,0,7.7-3,12,12,0,0,0,4.69-6.65,40.33,40.33,0,0,0,1.33-11.48q0-11.34-3.57-16.1T221.41,192.66Z" transform="translate(15.47 -20.02)"/><path class="cls-1" d="M278.66,238.3h-3.5V141.7h3.5v96.6Z" transform="translate(15.47 -20.02)"/><path class="cls-1" d="M380,182.3v56h-2.38l-0.84-12.46Q363.64,240,346.84,240q-17.08,0-24.5-11.76T314.92,190q0-27.72,8-38.85T351,140a139.76,139.76,0,0,1,27.44,2.38l-0.84,2.52a189.5,189.5,0,0,0-26.6-1.68q-18.2,0-25.34,10.36T318.56,190q0,24.78,6.58,35.77t22,11a35.17,35.17,0,0,0,9.1-1.12,29.56,29.56,0,0,0,8.19-3.64,70.48,70.48,0,0,0,6.09-4.2q2.1-1.68,6-5.18V182.3H380Z" transform="translate(15.47 -20.02)"/><path class="cls-1" d="M484.46,141.7v94.5a1.86,1.86,0,0,1-2.1,2.1h-5.88a2.7,2.7,0,0,1-2.52-1.54l-44.8-82.46q-0.84-1.54-2.59-4.69T424,144.78h-3.5V238.3H417V143.8a1.86,1.86,0,0,1,2.1-2.1h5.46a2.54,2.54,0,0,1,2.52,1.54l43.82,80.64L477,235.22H481V141.7h3.5Z" transform="translate(15.47 -20.02)"/><path class="cls-1" d="M578,198.26H550.26v26.18h-2.94V198.26H519.6v-3.08h27.58V169h3.22v26.18H578v3.08Z" transform="translate(15.47 -20.02)"/><path class="cls-1" d="M675.42,238.3H671.5l-10.36-30.52q-4.48-12.88-15.82-12.88-19.18,0-28.7-.56v44h-3.5V141.7q11.2-1.12,30.94-1.12,15.68,0,21.77,5.67t6.09,21.49q0,12.88-4.13,18.62t-13.65,7.14v0.56q6.72,2.1,10.64,13.3Zm-58.8-46.62h27.44q13.58-.28,18.9-5.25t5.32-18.69q0-14-5.32-19t-18.9-5q-17.92,0-27.44.28v47.6Z" transform="translate(15.47 -20.02)"/><path class="cls-1" d="M763.62,235.22l0.28,2.52q-13.72.56-41.16,0.56A13.88,13.88,0,0,1,708.46,224V156a13.88,13.88,0,0,1,14.28-14.28q27.44,0,41.16.56l-0.28,2.52H723.44A11,11,0,0,0,712,156.26V185.1h45.92V188H712v35.7a11,11,0,0,0,11.48,11.48h40.18Z" transform="translate(15.47 -20.02)"/><path class="cls-1" d="M801.14,238.3h-3.5V141.7h3.5v96.6Z" transform="translate(15.47 -20.02)"/><path class="cls-1" d="M908.66,141.7v94.5a1.86,1.86,0,0,1-2.1,2.1h-5.88a2.7,2.7,0,0,1-2.52-1.54l-44.8-82.46q-0.84-1.54-2.59-4.69t-2.59-4.83h-3.5V238.3h-3.5V143.8a1.86,1.86,0,0,1,2.1-2.1h5.46a2.54,2.54,0,0,1,2.52,1.54l43.82,80.64,6.16,11.34h3.92V141.7h3.5Z" transform="translate(15.47 -20.02)"/><path class="cls-1" d="M1013.51,141.7l-33,95.34a1.89,1.89,0,0,1-1.82,1.26h-5.88A1.89,1.89,0,0,1,971,237l-33-95.34h3.78l28.56,83.16q1.68,4.62,3.5,10.36h3.92q2.24-7,3.5-10.5l28.56-83h3.78Z" transform="translate(15.47 -20.02)"/><path class="cls-1" d="M1097.09,235.22l0.28,2.52q-13.72.56-41.16,0.56A13.88,13.88,0,0,1,1041.93,224V156a13.88,13.88,0,0,1,14.28-14.28q27.44,0,41.16.56l-0.28,2.52h-40.18a11,11,0,0,0-11.48,11.48V185.1h45.92V188h-45.92v35.7a11,11,0,0,0,11.48,11.48h40.18Z" transform="translate(15.47 -20.02)"/><path class="cls-1" d="M1198.59,141.7v94.5a1.86,1.86,0,0,1-2.1,2.1h-5.88a2.7,2.7,0,0,1-2.52-1.54l-44.8-82.46q-0.84-1.54-2.59-4.69t-2.59-4.83h-3.5V238.3h-3.5V143.8a1.86,1.86,0,0,1,2.1-2.1h5.46a2.54,2.54,0,0,1,2.52,1.54L1185,223.88l6.16,11.34h3.92V141.7h3.5Z" transform="translate(15.47 -20.02)"/><path class="cls-1" d="M1299.39,144.78h-34V238.3h-3.5V144.78H1228V141.7h71.4v3.08Z" transform="translate(15.47 -20.02)"/><path class="cls-1" d="M57.61,355.22l0.28,2.52q-13.72.56-41.16,0.56A13.88,13.88,0,0,1,2.45,344V276A13.88,13.88,0,0,1,16.73,261.7q27.44,0,41.16.56l-0.28,2.52H17.43A11,11,0,0,0,5.95,276.26V305.1H51.87V308H5.95v35.7a11,11,0,0,0,11.48,11.48H57.61Z" transform="translate(15.47 -20.02)"/><path class="cls-1" d="M120.89,309.3h-4.34l-29.82,49h-4.2l30.66-50.4L84.35,261.7h4.2l27.86,44.52H121l27.86-44.52h4.2l-28.84,46.2,30.66,50.4h-4.2Z" transform="translate(15.47 -20.02)"/><path class="cls-1" d="M185.84,358.3V261.7q11.2-1.12,30.94-1.12,15.54,0,21.7,6t6.16,22.4q0,16.52-6.09,22.47t-21.77,6q-17.92,0-27.44-.56V358.3h-3.5Zm3.5-44.1h27.44q13.72-.28,19-5.39T241,289q0-14.7-5.32-20t-18.9-5.25q-17.92,0-27.44.28V314.2Z" transform="translate(15.47 -20.02)"/><path class="cls-1" d="M281.46,261.7v82a11,11,0,0,0,11.48,11.48H331v2.52q-12.88.56-38.78,0.56A13.88,13.88,0,0,1,278,344V261.7h3.5Z" transform="translate(15.47 -20.02)"/><path class="cls-1" d="M360.49,271.15Q368.4,260,388.28,260t27.79,11.13Q424,282.28,424,310t-7.91,38.85Q408.16,360,388.28,360t-27.79-11.13q-7.91-11.13-7.91-38.85T360.49,271.15Zm52.78,2.45q-7.07-10.36-25-10.36t-25,10.36Q356.22,284,356.22,310t7.07,36.4q7.07,10.36,25,10.36t25-10.36q7.07-10.36,7.07-36.4T413.27,273.6Z" transform="translate(15.47 -20.02)"/><path class="cls-1" d="M522.54,358.3h-3.92l-10.36-30.52q-4.48-12.88-15.82-12.88-19.18,0-28.7-.56v44h-3.5V261.7q11.2-1.12,30.94-1.12,15.68,0,21.77,5.67T519,287.74q0,12.88-4.13,18.62t-13.65,7.14v0.56q6.72,2.1,10.64,13.3Zm-58.8-46.62h27.44q13.58-.28,18.9-5.25t5.32-18.69q0-14-5.32-19t-18.9-5q-17.92,0-27.44.28v47.6Z" transform="translate(15.47 -20.02)"/><path class="cls-1" d="M610.74,355.22l0.28,2.52q-13.72.56-41.16,0.56A13.88,13.88,0,0,1,555.58,344V276a13.88,13.88,0,0,1,14.28-14.28q27.44,0,41.16.56l-0.28,2.52H570.56a11,11,0,0,0-11.48,11.48V305.1H605V308H559.08v35.7a11,11,0,0,0,11.48,11.48h40.18Z" transform="translate(15.47 -20.02)"/><path class="cls-1" d="M698.24,318.26H670.52v26.18h-2.94V318.26H639.86v-3.08h27.58V289h3.22v26.18h27.58v3.08Z" transform="translate(15.47 -20.02)"/><path class="cls-1" d="M736.88,358.3h-3.5V261.7h3.5v96.6Z" transform="translate(15.47 -20.02)"/><path class="cls-1" d="M837.68,264.78h-34V358.3h-3.5V264.78H766.28V261.7h71.4v3.08Z" transform="translate(15.47 -20.02)"/><path class="cls-1" d="M921.4,355.22l0.28,2.52q-13.72.56-41.16,0.56A13.88,13.88,0,0,1,866.24,344V276a13.88,13.88,0,0,1,14.28-14.28q27.44,0,41.16.56l-0.28,2.52H881.22a11,11,0,0,0-11.48,11.48V305.1h45.92V308H869.74v35.7a11,11,0,0,0,11.48,11.48H921.4Z" transform="translate(15.47 -20.02)"/><path class="cls-1" d="M1017.71,358.3h-3.92l-10.36-30.52Q999,314.9,987.62,314.9q-19.18,0-28.7-.56v44h-3.5V261.7q11.2-1.12,30.94-1.12,15.68,0,21.77,5.67t6.09,21.49q0,12.88-4.13,18.62t-13.65,7.14v0.56q6.72,2.1,10.64,13.3Zm-58.8-46.62h27.44q13.58-.28,18.9-5.25t5.32-18.69q0-14-5.32-19t-18.9-5q-17.92,0-27.44.28v47.6Z" transform="translate(15.47 -20.02)"/><path class="cls-1" d="M1102.41,323h-46.06l-12.74,35.28h-3.78L1074.55,263a1.74,1.74,0,0,1,1.82-1.26h6a1.74,1.74,0,0,1,1.82,1.26l34.72,95.34h-3.78Zm-1.12-3.08-17.08-47.32-2.8-7.84h-4.06l-2.8,7.84-17.08,47.32h43.82Z" transform="translate(15.47 -20.02)"/><path class="cls-1" d="M1199,264.78h-34V358.3h-3.5V264.78h-33.88V261.7H1199v3.08Z" transform="translate(15.47 -20.02)"/><path class="cls-1" d="M1282.73,355.22l0.28,2.52q-13.72.56-41.16,0.56A13.88,13.88,0,0,1,1227.57,344V276a13.88,13.88,0,0,1,14.28-14.28q27.44,0,41.16.56l-0.28,2.52h-40.18a11,11,0,0,0-11.48,11.48V305.1H1277V308h-45.92v35.7a11,11,0,0,0,11.48,11.48h40.18Z" transform="translate(15.47 -20.02)"/><path class="cls-1" d="M42.91,381.7v82a11,11,0,0,0,11.48,11.48H92.47v2.52q-12.88.56-38.78,0.56A13.88,13.88,0,0,1,39.41,464V381.7h3.5Z" transform="translate(15.47 -20.02)"/><path class="cls-1" d="M176.32,475.22l0.28,2.52q-13.72.56-41.16,0.56A13.88,13.88,0,0,1,121.16,464V396a13.88,13.88,0,0,1,14.28-14.28q27.44,0,41.16.56l-0.28,2.52H136.14a11,11,0,0,0-11.48,11.48V425.1h45.92V428H124.66v35.7a11,11,0,0,0,11.48,11.48h40.18Z" transform="translate(15.47 -20.02)"/><path class="cls-1" d="M261.16,443H215.1L202.36,478.3h-3.78L233.3,383a1.74,1.74,0,0,1,1.82-1.26h6A1.74,1.74,0,0,1,243,383l34.72,95.34H273.9ZM260,439.94L243,392.62l-2.8-7.84H236.1l-2.8,7.84-17.08,47.32H260Z" transform="translate(15.47 -20.02)"/><path class="cls-1" d="M368.26,478.3h-3.92L354,447.78q-4.48-12.88-15.82-12.88-19.18,0-28.7-.56v44H306V381.7q11.2-1.12,30.94-1.12,15.68,0,21.77,5.67t6.09,21.49q0,12.88-4.13,18.62T347,433.5v0.56q6.72,2.1,10.64,13.3Zm-58.8-46.62H336.9q13.58-.28,18.9-5.25t5.32-18.69q0-14-5.32-19t-18.9-5q-17.92,0-27.44.28v47.6Z" transform="translate(15.47 -20.02)"/><path class="cls-1" d="M469.62,381.7v94.5a1.86,1.86,0,0,1-2.1,2.1h-5.88a2.7,2.7,0,0,1-2.52-1.54l-44.8-82.46q-0.84-1.54-2.59-4.69t-2.59-4.83h-3.5V478.3h-3.5V383.8a1.86,1.86,0,0,1,2.1-2.1h5.46a2.54,2.54,0,0,1,2.52,1.54L456,463.88l6.16,11.34h3.92V381.7h3.5Z" transform="translate(15.47 -20.02)"/><path class="cls-1" d="M563.14,438.26H535.42v26.18h-2.94V438.26H504.76v-3.08h27.58V409h3.22v26.18h27.58v3.08Z" transform="translate(15.47 -20.02)"/><path class="cls-1" d="M655.68,474.94l0.84,2.52A119.91,119.91,0,0,1,630.2,480q-19.88,0-27.79-11.13T594.5,430q0-27.72,7.91-38.85T630.2,380a109.9,109.9,0,0,1,24.36,2.38l-0.84,2.52a149.68,149.68,0,0,0-23.52-1.68q-17.92,0-25,10.36T598.14,430q0,26,7.07,36.4t25,10.36A152,152,0,0,0,655.68,474.94Z" transform="translate(15.47 -20.02)"/><path class="cls-1" d="M690.33,391.15Q698.24,380,718.12,380t27.79,11.13q7.91,11.13,7.91,38.85t-7.91,38.85Q738,480,718.12,480t-27.79-11.13q-7.91-11.13-7.91-38.85T690.33,391.15Zm52.78,2.45q-7.07-10.36-25-10.36t-25,10.36Q686.06,404,686.06,430t7.07,36.4q7.07,10.36,25,10.36t25-10.36q7.07-10.36,7.07-36.4T743.11,393.6Z" transform="translate(15.47 -20.02)"/><path class="cls-1" d="M870.72,381.7h5.88a1.86,1.86,0,0,1,2.1,2.1l4.2,94.5h-3.5l-4.2-93.52h-3.36L840.2,468.64a1.74,1.74,0,0,1-1.82,1.26H832.5a1.74,1.74,0,0,1-1.82-1.26L799,384.78h-3.36l-4.2,93.52H788l4.2-94.5a1.86,1.86,0,0,1,2.1-2.1h5.88A1.74,1.74,0,0,1,802,383l26.74,70.7q0.84,2.24,2.45,6.58t2.45,6.58h3.64l5-13.44L868.9,383A1.73,1.73,0,0,1,870.72,381.7Z" transform="translate(15.47 -20.02)"/><path class="cls-1" d="M920.84,478.3V381.7q11.2-1.12,30.94-1.12,15.54,0,21.7,6t6.16,22.4q0,16.52-6.09,22.47t-21.77,5.95q-17.92,0-27.44-.56V478.3h-3.5Zm3.5-44.1h27.44q13.72-.28,19-5.39T976,409q0-14.7-5.32-19.95t-18.9-5.25q-17.92,0-27.44.28V434.2Z" transform="translate(15.47 -20.02)"/><path class="cls-1" d="M1067.7,475.22l0.28,2.52q-13.72.56-41.16,0.56A13.88,13.88,0,0,1,1012.54,464V396a13.88,13.88,0,0,1,14.28-14.28q27.44,0,41.16.56l-0.28,2.52h-40.18A11,11,0,0,0,1016,396.26V425.1H1062V428H1016v35.7a11,11,0,0,0,11.48,11.48h40.18Z" transform="translate(15.47 -20.02)"/><path class="cls-1" d="M1162.47,384.78h-34V478.3H1125V384.78h-33.88V381.7h71.4v3.08Z" transform="translate(15.47 -20.02)"/><path class="cls-1" d="M1246.2,475.22l0.28,2.52q-13.72.56-41.16,0.56A13.88,13.88,0,0,1,1191,464V396a13.88,13.88,0,0,1,14.28-14.28q27.44,0,41.16.56l-0.28,2.52H1206a11,11,0,0,0-11.48,11.48V425.1h45.92V428h-45.92v35.7A11,11,0,0,0,1206,475.22h40.18Z" transform="translate(15.47 -20.02)"/><path class="cls-1" d="M22.68,598.3V501.7q11.2-1.12,30.94-1.12,15.54,0,21.7,6T81.48,529q0,16.52-6.09,22.47t-21.77,5.95q-17.92,0-27.44-.56V598.3h-3.5Zm3.5-44.1H53.62q13.72-.28,19-5.39T77.84,529q0-14.7-5.32-19.95t-18.9-5.25q-17.92,0-27.44.28V554.2Z" transform="translate(15.47 -20.02)"/><path class="cls-1" d="M177.52,598.3H173.6l-10.36-30.52q-4.48-12.88-15.82-12.88-19.18,0-28.7-.56v44h-3.5V501.7q11.2-1.12,30.94-1.12,15.68,0,21.77,5.67T174,527.74q0,12.88-4.13,18.62t-13.65,7.14v0.56q6.72,2.1,10.64,13.3Zm-58.8-46.62h27.44q13.58-.28,18.9-5.25t5.32-18.69q0-14-5.32-19t-18.9-5q-17.92,0-27.44.28v47.6Z" transform="translate(15.47 -20.02)"/><path class="cls-1" d="M215.52,511.15Q223.43,500,243.31,500t27.79,11.13Q279,522.28,279,550t-7.91,38.85Q263.19,600,243.31,600t-27.79-11.13q-7.91-11.13-7.91-38.85T215.52,511.15Zm52.78,2.45q-7.07-10.36-25-10.36t-25,10.36Q211.25,524,211.25,550t7.07,36.4q7.07,10.36,25,10.36t25-10.36q7.07-10.36,7.07-36.4T268.3,513.6Z" transform="translate(15.47 -20.02)"/><path class="cls-1" d="M371.83,504.78h-34V598.3h-3.5V504.78H300.43V501.7h71.4v3.08Z" transform="translate(15.47 -20.02)"/><path class="cls-1" d="M401.16,511.15Q409.07,500,429,500t27.79,11.13q7.91,11.13,7.91,38.85t-7.91,38.85Q448.83,600,429,600t-27.79-11.13q-7.91-11.13-7.91-38.85T401.16,511.15Zm52.78,2.45q-7.07-10.36-25-10.36T404,513.6Q396.89,524,396.89,550T404,586.4q7.07,10.36,25,10.36t25-10.36Q461,576,461,550T453.94,513.6Z" transform="translate(15.47 -20.02)"/><path class="cls-1" d="M557.47,504.78h-34V598.3H520V504.78H486.07V501.7h71.4v3.08Z" transform="translate(15.47 -20.02)"/><path class="cls-1" d="M612.07,562.32v36h-3.5v-36l-33-60.62h3.92l25.2,46.62q3.64,6.72,5.32,9.52h0.7l2.45-4.34q1.89-3.36,2.73-5l25.2-46.76H645Z" transform="translate(15.47 -20.02)"/><path class="cls-1" d="M673.81,598.3V501.7q11.2-1.12,30.94-1.12,15.54,0,21.7,6t6.16,22.4q0,16.52-6.09,22.47t-21.77,5.95q-17.92,0-27.44-.56V598.3h-3.5Zm3.5-44.1h27.44q13.72-.28,19-5.39T729,529q0-14.7-5.32-19.95t-18.9-5.25q-17.92,0-27.44.28V554.2Z" transform="translate(15.47 -20.02)"/><path class="cls-1" d="M820.67,595.22l0.28,2.52q-13.72.56-41.16,0.56A13.88,13.88,0,0,1,765.51,584V516a13.88,13.88,0,0,1,14.28-14.28q27.44,0,41.16.56l-0.28,2.52H780.49A11,11,0,0,0,769,516.26V545.1h45.92V548H769v35.7a11,11,0,0,0,11.48,11.48h40.18Z" transform="translate(15.47 -20.02)"/><path class="cls-1" d="M908.17,558.26H880.45v26.18h-2.94V558.26H849.79v-3.08h27.58V529h3.22v26.18h27.58v3.08Z" transform="translate(15.47 -20.02)"/><path class="cls-1" d="M1004.07,504.78H970V598.3h-3.5V504.78H932.67V501.7h71.4v3.08Z" transform="translate(15.47 -20.02)"/><path class="cls-1" d="M1087.79,595.22l0.28,2.52q-13.72.56-41.16,0.56A13.88,13.88,0,0,1,1032.63,584V516a13.88,13.88,0,0,1,14.28-14.28q27.44,0,41.16.56l-0.28,2.52H1047.6a11,11,0,0,0-11.48,11.48V545.1H1082V548h-45.92v35.7a11,11,0,0,0,11.48,11.48h40.18Z" transform="translate(15.47 -20.02)"/><path class="cls-1" d="M1156.8,552.66l-21.42-2.94q-10.08-1.12-14.42-7t-4.34-17.78a46.83,46.83,0,0,1,1.61-13.65,12.9,12.9,0,0,1,5.74-7.56,23.14,23.14,0,0,1,8.75-3.08,91.54,91.54,0,0,1,13-.49q13.58,0.28,26.18,1.68l-0.42,2.66q-16.8-1.12-25.76-1.12-5.46,0-8.19.14a52.08,52.08,0,0,0-6.3.77,11.32,11.32,0,0,0-5.18,2,17.53,17.53,0,0,0-3.22,3.71,14.57,14.57,0,0,0-2.17,6,60.22,60.22,0,0,0-.56,9q0,10.64,3.5,15.47t11.76,6l21.42,2.94q10.64,1.26,15,7t4.41,18.34a42.36,42.36,0,0,1-1.33,11.41,21.16,21.16,0,0,1-3.5,7.42,13.21,13.21,0,0,1-6.16,4.13,35.16,35.16,0,0,1-8,1.82,103.72,103.72,0,0,1-10.43.42,246.76,246.76,0,0,1-28.56-1.54l0.42-2.66q14.56,1.12,28.28,1a89.87,89.87,0,0,0,12-.84,18.63,18.63,0,0,0,7.7-3,12.06,12.06,0,0,0,4.69-6.65,40.34,40.34,0,0,0,1.33-11.48q0-11.34-3.57-16.1T1156.8,552.66Z" transform="translate(15.47 -20.02)"/><path class="cls-1" d="M1271.32,504.78h-34V598.3h-3.5V504.78h-33.88V501.7h71.4v3.08Z" transform="translate(15.47 -20.02)"/><path class="cls-1" d="M39.69,715.22L40,717.74q-13.72.56-41.16,0.56a13.84,13.84,0,0,1-10.22-4.06A13.84,13.84,0,0,1-15.47,704V636a13.86,13.86,0,0,1,4.06-10.22A13.86,13.86,0,0,1-1.19,621.7q27.44,0,41.16.56l-0.28,2.52H-0.49A11.19,11.19,0,0,0-8.75,628,11.18,11.18,0,0,0-12,636.26V665.1H33.95V668H-12v35.7A11.18,11.18,0,0,0-8.75,712a11.18,11.18,0,0,0,8.26,3.22H39.69Z" transform="translate(15.47 -20.02)"/><path class="cls-1" d="M103,669.3H98.63l-29.82,49h-4.2l30.66-50.4L66.43,621.7h4.2l27.86,44.52h4.62L131,621.7h4.2l-28.84,46.2L137,718.3h-4.2Z" transform="translate(15.47 -20.02)"/><path class="cls-1" d="M167.92,718.3V621.7q11.2-1.12,30.94-1.12,15.54,0,21.7,6t6.16,22.4q0,16.52-6.09,22.47t-21.77,5.95q-17.92,0-27.44-.56V718.3h-3.5Zm3.5-44.1h27.44q13.72-.28,19-5.39T223.08,649q0-14.7-5.32-19.95t-18.9-5.25q-17.92,0-27.44.28V674.2Z" transform="translate(15.47 -20.02)"/><path class="cls-1" d="M314.78,715.22l0.28,2.52q-13.72.56-41.16,0.56A13.88,13.88,0,0,1,259.62,704V636A13.88,13.88,0,0,1,273.9,621.7q27.44,0,41.16.56l-0.28,2.52H274.6a11,11,0,0,0-11.48,11.48V665.1H309V668H263.12v35.7a11,11,0,0,0,11.48,11.48h40.18Z" transform="translate(15.47 -20.02)"/><path class="cls-1" d="M411.1,718.3h-3.92l-10.36-30.52Q392.34,674.9,381,674.9q-19.18,0-28.7-.56v44h-3.5V621.7q11.2-1.12,30.94-1.12,15.68,0,21.77,5.67t6.09,21.49q0,12.88-4.13,18.62t-13.65,7.14v0.56q6.72,2.1,10.64,13.3Zm-58.8-46.62h27.44q13.58-.28,18.9-5.25T404,647.74q0-14-5.32-19t-18.9-5q-17.92,0-27.44.28v47.6Z" transform="translate(15.47 -20.02)"/><path class="cls-1" d="M448.48,718.3H445V621.7h3.5v96.6Z" transform="translate(15.47 -20.02)"/><path class="cls-1" d="M542.84,715.22l0.28,2.52q-13.72.56-41.16,0.56A13.88,13.88,0,0,1,487.68,704V636A13.88,13.88,0,0,1,502,621.7q27.44,0,41.16.56l-0.28,2.52H502.66a11,11,0,0,0-11.48,11.48V665.1H537.1V668H491.18v35.7a11,11,0,0,0,11.48,11.48h40.18Z" transform="translate(15.47 -20.02)"/><path class="cls-1" d="M644.34,621.7v94.5a1.86,1.86,0,0,1-2.1,2.1h-5.88a2.7,2.7,0,0,1-2.52-1.54L589,634.3q-0.84-1.54-2.59-4.69t-2.59-4.83h-3.5V718.3h-3.5V623.8a1.86,1.86,0,0,1,2.1-2.1h5.46a2.54,2.54,0,0,1,2.52,1.54l43.82,80.64,6.16,11.34h3.92V621.7h3.5Z" transform="translate(15.47 -20.02)"/><path class="cls-1" d="M741.78,714.94l0.84,2.52A119.91,119.91,0,0,1,716.3,720q-19.88,0-27.79-11.13T680.6,670q0-27.72,7.91-38.85T716.3,620a109.9,109.9,0,0,1,24.36,2.38l-0.84,2.52a149.81,149.81,0,0,0-23.52-1.68q-17.92,0-25,10.36T684.24,670q0,26,7.07,36.4t25,10.36A151.87,151.87,0,0,0,741.78,714.94Z" transform="translate(15.47 -20.02)"/><path class="cls-1" d="M828.44,715.22l0.28,2.52q-13.72.56-41.16,0.56A13.88,13.88,0,0,1,773.28,704V636a13.88,13.88,0,0,1,14.28-14.28q27.44,0,41.16.56l-0.28,2.52H788.26a11,11,0,0,0-11.48,11.48V665.1H822.7V668H776.78v35.7a11,11,0,0,0,11.48,11.48h40.18Z" transform="translate(15.47 -20.02)"/><path class="cls-1" d="M915.94,678.26H888.22v26.18h-2.94V678.26H857.56v-3.08h27.58V649h3.22v26.18h27.58v3.08Z" transform="translate(15.47 -20.02)"/><path class="cls-1" d="M1008.48,714.94l0.84,2.52A119.91,119.91,0,0,1,983,720q-19.88,0-27.79-11.13T947.29,670q0-27.72,7.91-38.85T983,620a109.9,109.9,0,0,1,24.36,2.38l-0.84,2.52A149.81,149.81,0,0,0,983,623.24q-17.92,0-25,10.36T950.94,670q0,26,7.07,36.4t25,10.36A151.87,151.87,0,0,0,1008.48,714.94Z" transform="translate(15.47 -20.02)"/><path class="cls-1" d="M1043.13,631.15Q1051,620,1070.92,620t27.79,11.13q7.91,11.13,7.91,38.85t-7.91,38.85Q1090.79,720,1070.92,720t-27.79-11.13q-7.91-11.13-7.91-38.85T1043.13,631.15Zm52.78,2.45q-7.07-10.36-25-10.36t-25,10.36q-7.07,10.36-7.07,36.4t7.07,36.4q7.07,10.36,25,10.36t25-10.36Q1103,696,1103,670T1095.91,633.6Z" transform="translate(15.47 -20.02)"/><path class="cls-1" d="M1142.87,718.3V621.7q16.66-1.26,32.06-1.26,19.46,0,27.3,11.13t7.84,38.43q0,27.3-7.84,38.43t-27.3,11.13Q1159.81,719.56,1142.87,718.3Zm3.5-94.08v91.7q25.2,0.42,28.56.42,17.5,0,24.5-10.29t7-36.05q0-25.76-7-36t-24.5-10.29Q1163.45,623.66,1146.37,624.22Z" transform="translate(15.47 -20.02)"/><path class="cls-1" d="M1300.65,715.22l0.28,2.52q-13.72.56-41.16,0.56A13.88,13.88,0,0,1,1245.49,704V636a13.88,13.88,0,0,1,14.28-14.28q27.44,0,41.16.56l-0.28,2.52h-40.18A11,11,0,0,0,1249,636.26V665.1h45.92V668H1249v35.7a11,11,0,0,0,11.48,11.48h40.18Z" transform="translate(15.47 -20.02)"/><path class="cls-1" d="M-8.61,118.3h-3.5V21.7h3.5v96.6Z" transform="translate(15.47 -20.02)"/><path class="cls-1" d="M98.9,21.7v94.5a1.86,1.86,0,0,1-2.1,2.1H90.92a2.7,2.7,0,0,1-2.52-1.54L43.6,34.3Q42.76,32.76,41,29.61t-2.59-4.83h-3.5V118.3h-3.5V23.8a1.86,1.86,0,0,1,2.1-2.1H39a2.54,2.54,0,0,1,2.52,1.54l43.82,80.64,6.16,11.34H95.4V21.7h3.5Z" transform="translate(15.47 -20.02)"/><path class="cls-1" d="M206.42,21.7v94.5a1.86,1.86,0,0,1-2.1,2.1h-5.88a2.7,2.7,0,0,1-2.52-1.54L151.12,34.3q-0.84-1.54-2.59-4.69t-2.59-4.83h-3.5V118.3h-3.5V23.8a1.86,1.86,0,0,1,2.1-2.1h5.46A2.54,2.54,0,0,1,149,23.24l43.82,80.64L199,115.22h3.92V21.7h3.5Z" transform="translate(15.47 -20.02)"/><path class="cls-1" d="M250.59,31.15Q258.5,20,278.38,20t27.79,11.13q7.91,11.13,7.91,38.85t-7.91,38.85Q298.26,120,278.38,120t-27.79-11.13Q242.68,97.72,242.68,70T250.59,31.15Zm52.78,2.45q-7.07-10.36-25-10.36t-25,10.36Q246.32,44,246.32,70t7.07,36.4q7.07,10.36,25,10.36t25-10.36Q310.44,96,310.44,70T303.37,33.6Z" transform="translate(15.47 -20.02)"/><path class="cls-1" d="M414.46,21.7l-33,95.34a1.89,1.89,0,0,1-1.82,1.26h-5.88A1.88,1.88,0,0,1,371.9,117l-33-95.34h3.78l28.56,83.16q1.68,4.62,3.5,10.36h3.92q2.24-7,3.5-10.5l28.56-83h3.78Z" transform="translate(15.47 -20.02)"/><path class="cls-1" d="M489.78,83H443.72L431,118.3H427.2L461.92,23a1.74,1.74,0,0,1,1.82-1.26h6A1.74,1.74,0,0,1,471.58,23L506.3,118.3h-3.78Zm-1.12-3.08L471.58,32.62l-2.8-7.84h-4.06l-2.8,7.84L444.84,79.94h43.82Z" transform="translate(15.47 -20.02)"/><path class="cls-1" d="M586.38,24.78h-34V118.3h-3.5V24.78H515V21.7h71.4v3.08Z" transform="translate(15.47 -20.02)"/><path class="cls-1" d="M670.1,115.22l0.28,2.52q-13.72.56-41.16,0.56A13.88,13.88,0,0,1,614.94,104V36A13.88,13.88,0,0,1,629.22,21.7q27.44,0,41.16.56l-0.28,2.52H629.92a11,11,0,0,0-11.48,11.48V65.1h45.92V68H618.44v35.7a11,11,0,0,0,11.48,11.48H670.1Z" transform="translate(15.47 -20.02)"/><path class="cls-1" d="M757.6,78.26H729.88v26.18h-2.94V78.26H699.22V75.18H726.8V49H730V75.18H757.6v3.08Z" transform="translate(15.47 -20.02)"/><path class="cls-1" d="M850.14,114.94l0.84,2.52A119.9,119.9,0,0,1,824.66,120q-19.88,0-27.79-11.13T789,70q0-27.72,7.91-38.85T824.66,20A109.9,109.9,0,0,1,849,22.4l-0.84,2.52a149.69,149.69,0,0,0-23.52-1.68q-17.92,0-25,10.36T792.6,70q0,26,7.07,36.4t25,10.36A152,152,0,0,0,850.14,114.94Z" transform="translate(15.47 -20.02)"/><path class="cls-1" d="M944.78,118.3h-3.92L930.5,87.78Q926,74.9,914.68,74.9q-19.18,0-28.7-.56v44h-3.5V21.7q11.2-1.12,30.94-1.12,15.68,0,21.77,5.67t6.09,21.49q0,12.88-4.13,18.62T923.5,73.5v0.56q6.72,2.1,10.64,13.3ZM886,71.68h27.44q13.58-.28,18.9-5.25t5.32-18.69q0-14-5.32-19t-18.9-5q-17.92,0-27.44.28v47.6Z" transform="translate(15.47 -20.02)"/><path class="cls-1" d="M1033,115.22l0.28,2.52q-13.72.56-41.16,0.56A13.88,13.88,0,0,1,977.82,104V36A13.88,13.88,0,0,1,992.1,21.7q27.44,0,41.16.56L1033,24.78H992.8a11,11,0,0,0-11.48,11.48V65.1h45.92V68H981.32v35.7a11,11,0,0,0,11.48,11.48H1033Z" transform="translate(15.47 -20.02)"/><path class="cls-1" d="M1117.82,83h-46.06L1059,118.3h-3.78L1090,23a1.74,1.74,0,0,1,1.82-1.26h6a1.74,1.74,0,0,1,1.82,1.26l34.72,95.34h-3.78Zm-1.12-3.08-17.08-47.32-2.8-7.84h-4.06l-2.8,7.84-17.08,47.32h43.82Z" transform="translate(15.47 -20.02)"/><path class="cls-1" d="M1214.42,24.78h-34V118.3h-3.5V24.78H1143V21.7h71.4v3.08Z" transform="translate(15.47 -20.02)"/><path class="cls-1" d="M1298.13,115.22l0.28,2.52q-13.72.56-41.16,0.56A13.88,13.88,0,0,1,1243,104V36a13.88,13.88,0,0,1,14.28-14.28q27.44,0,41.16.56l-0.28,2.52H1258a11,11,0,0,0-11.48,11.48V65.1h45.92V68h-45.92v35.7A11,11,0,0,0,1258,115.22h40.18Z" transform="translate(15.47 -20.02)"/><path class="cls-1" d="M-5.39,238.3V141.7q16.66-1.26,32.06-1.26,19.46,0,27.3,11.13T61.81,190q0,27.3-7.84,38.43t-27.3,11.13Q11.55,239.56-5.39,238.3Zm3.5-94.08v91.7q25.2,0.42,28.56.42,17.5,0,24.5-10.29t7-36q0-25.76-7-36.05t-24.5-10.29Q15.19,143.66-1.89,144.22Z" transform="translate(15.47 -20.02)"/><path class="cls-1" d="M152.39,235.22l0.28,2.52q-13.72.56-41.16,0.56A13.88,13.88,0,0,1,97.23,224V156a13.88,13.88,0,0,1,14.28-14.28q27.44,0,41.16.56l-0.28,2.52H112.21a11,11,0,0,0-11.48,11.48V185.1h45.92V188H100.73v35.7a11,11,0,0,0,11.48,11.48h40.18Z" transform="translate(15.47 -20.02)"/><path class="cls-1" d="M221.41,192.66L200,189.72q-10.08-1.12-14.42-7t-4.34-17.78a46.8,46.8,0,0,1,1.61-13.65,12.89,12.89,0,0,1,5.74-7.56,23.14,23.14,0,0,1,8.75-3.08,91.54,91.54,0,0,1,13-.49q13.58,0.28,26.18,1.68l-0.42,2.66q-16.8-1.12-25.76-1.12-5.46,0-8.19.14a52.18,52.18,0,0,0-6.3.77,11.32,11.32,0,0,0-5.18,2,17.48,17.48,0,0,0-3.22,3.71,14.57,14.57,0,0,0-2.17,6,60.22,60.22,0,0,0-.56,9q0,10.64,3.5,15.47t11.76,6l21.42,2.94q10.64,1.26,15.05,7t4.41,18.34a42.33,42.33,0,0,1-1.33,11.41,21.14,21.14,0,0,1-3.5,7.42,13.21,13.21,0,0,1-6.16,4.13,35.26,35.26,0,0,1-8,1.82,103.86,103.86,0,0,1-10.43.42,246.64,246.64,0,0,1-28.56-1.54l0.42-2.66q14.56,1.12,28.28,1a89.78,89.78,0,0,0,12-.84,18.64,18.64,0,0,0,7.7-3,12,12,0,0,0,4.69-6.65,40.33,40.33,0,0,0,1.33-11.48q0-11.34-3.57-16.1T221.41,192.66Z" transform="translate(15.47 -20.02)"/><path class="cls-1" d="M278.66,238.3h-3.5V141.7h3.5v96.6Z" transform="translate(15.47 -20.02)"/><path class="cls-1" d="M380,182.3v56h-2.38l-0.84-12.46Q363.64,240,346.84,240q-17.08,0-24.5-11.76T314.92,190q0-27.72,8-38.85T351,140a139.76,139.76,0,0,1,27.44,2.38l-0.84,2.52a189.5,189.5,0,0,0-26.6-1.68q-18.2,0-25.34,10.36T318.56,190q0,24.78,6.58,35.77t22,11a35.17,35.17,0,0,0,9.1-1.12,29.56,29.56,0,0,0,8.19-3.64,70.48,70.48,0,0,0,6.09-4.2q2.1-1.68,6-5.18V182.3H380Z" transform="translate(15.47 -20.02)"/><path class="cls-1" d="M484.46,141.7v94.5a1.86,1.86,0,0,1-2.1,2.1h-5.88a2.7,2.7,0,0,1-2.52-1.54l-44.8-82.46q-0.84-1.54-2.59-4.69T424,144.78h-3.5V238.3H417V143.8a1.86,1.86,0,0,1,2.1-2.1h5.46a2.54,2.54,0,0,1,2.52,1.54l43.82,80.64L477,235.22H481V141.7h3.5Z" transform="translate(15.47 -20.02)"/><path class="cls-1" d="M578,198.26H550.26v26.18h-2.94V198.26H519.6v-3.08h27.58V169h3.22v26.18H578v3.08Z" transform="translate(15.47 -20.02)"/><path class="cls-1" d="M675.42,238.3H671.5l-10.36-30.52q-4.48-12.88-15.82-12.88-19.18,0-28.7-.56v44h-3.5V141.7q11.2-1.12,30.94-1.12,15.68,0,21.77,5.67t6.09,21.49q0,12.88-4.13,18.62t-13.65,7.14v0.56q6.72,2.1,10.64,13.3Zm-58.8-46.62h27.44q13.58-.28,18.9-5.25t5.32-18.69q0-14-5.32-19t-18.9-5q-17.92,0-27.44.28v47.6Z" transform="translate(15.47 -20.02)"/><path class="cls-1" d="M763.62,235.22l0.28,2.52q-13.72.56-41.16,0.56A13.88,13.88,0,0,1,708.46,224V156a13.88,13.88,0,0,1,14.28-14.28q27.44,0,41.16.56l-0.28,2.52H723.44A11,11,0,0,0,712,156.26V185.1h45.92V188H712v35.7a11,11,0,0,0,11.48,11.48h40.18Z" transform="translate(15.47 -20.02)"/><path class="cls-1" d="M801.14,238.3h-3.5V141.7h3.5v96.6Z" transform="translate(15.47 -20.02)"/><path class="cls-1" d="M908.66,141.7v94.5a1.86,1.86,0,0,1-2.1,2.1h-5.88a2.7,2.7,0,0,1-2.52-1.54l-44.8-82.46q-0.84-1.54-2.59-4.69t-2.59-4.83h-3.5V238.3h-3.5V143.8a1.86,1.86,0,0,1,2.1-2.1h5.46a2.54,2.54,0,0,1,2.52,1.54l43.82,80.64,6.16,11.34h3.92V141.7h3.5Z" transform="translate(15.47 -20.02)"/><path class="cls-1" d="M1013.51,141.7l-33,95.34a1.89,1.89,0,0,1-1.82,1.26h-5.88A1.89,1.89,0,0,1,971,237l-33-95.34h3.78l28.56,83.16q1.68,4.62,3.5,10.36h3.92q2.24-7,3.5-10.5l28.56-83h3.78Z" transform="translate(15.47 -20.02)"/><path class="cls-1" d="M1097.09,235.22l0.28,2.52q-13.72.56-41.16,0.56A13.88,13.88,0,0,1,1041.93,224V156a13.88,13.88,0,0,1,14.28-14.28q27.44,0,41.16.56l-0.28,2.52h-40.18a11,11,0,0,0-11.48,11.48V185.1h45.92V188h-45.92v35.7a11,11,0,0,0,11.48,11.48h40.18Z" transform="translate(15.47 -20.02)"/><path class="cls-1" d="M1198.59,141.7v94.5a1.86,1.86,0,0,1-2.1,2.1h-5.88a2.7,2.7,0,0,1-2.52-1.54l-44.8-82.46q-0.84-1.54-2.59-4.69t-2.59-4.83h-3.5V238.3h-3.5V143.8a1.86,1.86,0,0,1,2.1-2.1h5.46a2.54,2.54,0,0,1,2.52,1.54L1185,223.88l6.16,11.34h3.92V141.7h3.5Z" transform="translate(15.47 -20.02)"/><path class="cls-1" d="M1299.39,144.78h-34V238.3h-3.5V144.78H1228V141.7h71.4v3.08Z" transform="translate(15.47 -20.02)"/><path class="cls-1" d="M57.61,355.22l0.28,2.52q-13.72.56-41.16,0.56A13.88,13.88,0,0,1,2.45,344V276A13.88,13.88,0,0,1,16.73,261.7q27.44,0,41.16.56l-0.28,2.52H17.43A11,11,0,0,0,5.95,276.26V305.1H51.87V308H5.95v35.7a11,11,0,0,0,11.48,11.48H57.61Z" transform="translate(15.47 -20.02)"/><path class="cls-1" d="M120.89,309.3h-4.34l-29.82,49h-4.2l30.66-50.4L84.35,261.7h4.2l27.86,44.52H121l27.86-44.52h4.2l-28.84,46.2,30.66,50.4h-4.2Z" transform="translate(15.47 -20.02)"/><path class="cls-1" d="M185.84,358.3V261.7q11.2-1.12,30.94-1.12,15.54,0,21.7,6t6.16,22.4q0,16.52-6.09,22.47t-21.77,6q-17.92,0-27.44-.56V358.3h-3.5Zm3.5-44.1h27.44q13.72-.28,19-5.39T241,289q0-14.7-5.32-20t-18.9-5.25q-17.92,0-27.44.28V314.2Z" transform="translate(15.47 -20.02)"/><path class="cls-1" d="M281.46,261.7v82a11,11,0,0,0,11.48,11.48H331v2.52q-12.88.56-38.78,0.56A13.88,13.88,0,0,1,278,344V261.7h3.5Z" transform="translate(15.47 -20.02)"/><path class="cls-1" d="M360.49,271.15Q368.4,260,388.28,260t27.79,11.13Q424,282.28,424,310t-7.91,38.85Q408.16,360,388.28,360t-27.79-11.13q-7.91-11.13-7.91-38.85T360.49,271.15Zm52.78,2.45q-7.07-10.36-25-10.36t-25,10.36Q356.22,284,356.22,310t7.07,36.4q7.07,10.36,25,10.36t25-10.36q7.07-10.36,7.07-36.4T413.27,273.6Z" transform="translate(15.47 -20.02)"/><path class="cls-1" d="M522.54,358.3h-3.92l-10.36-30.52q-4.48-12.88-15.82-12.88-19.18,0-28.7-.56v44h-3.5V261.7q11.2-1.12,30.94-1.12,15.68,0,21.77,5.67T519,287.74q0,12.88-4.13,18.62t-13.65,7.14v0.56q6.72,2.1,10.64,13.3Zm-58.8-46.62h27.44q13.58-.28,18.9-5.25t5.32-18.69q0-14-5.32-19t-18.9-5q-17.92,0-27.44.28v47.6Z" transform="translate(15.47 -20.02)"/><path class="cls-1" d="M610.74,355.22l0.28,2.52q-13.72.56-41.16,0.56A13.88,13.88,0,0,1,555.58,344V276a13.88,13.88,0,0,1,14.28-14.28q27.44,0,41.16.56l-0.28,2.52H570.56a11,11,0,0,0-11.48,11.48V305.1H605V308H559.08v35.7a11,11,0,0,0,11.48,11.48h40.18Z" transform="translate(15.47 -20.02)"/><path class="cls-1" d="M698.24,318.26H670.52v26.18h-2.94V318.26H639.86v-3.08h27.58V289h3.22v26.18h27.58v3.08Z" transform="translate(15.47 -20.02)"/><path class="cls-1" d="M736.88,358.3h-3.5V261.7h3.5v96.6Z" transform="translate(15.47 -20.02)"/><path class="cls-1" d="M837.68,264.78h-34V358.3h-3.5V264.78H766.28V261.7h71.4v3.08Z" transform="translate(15.47 -20.02)"/><path class="cls-1" d="M921.4,355.22l0.28,2.52q-13.72.56-41.16,0.56A13.88,13.88,0,0,1,866.24,344V276a13.88,13.88,0,0,1,14.28-14.28q27.44,0,41.16.56l-0.28,2.52H881.22a11,11,0,0,0-11.48,11.48V305.1h45.92V308H869.74v35.7a11,11,0,0,0,11.48,11.48H921.4Z" transform="translate(15.47 -20.02)"/><path class="cls-1" d="M1017.71,358.3h-3.92l-10.36-30.52Q999,314.9,987.62,314.9q-19.18,0-28.7-.56v44h-3.5V261.7q11.2-1.12,30.94-1.12,15.68,0,21.77,5.67t6.09,21.49q0,12.88-4.13,18.62t-13.65,7.14v0.56q6.72,2.1,10.64,13.3Zm-58.8-46.62h27.44q13.58-.28,18.9-5.25t5.32-18.69q0-14-5.32-19t-18.9-5q-17.92,0-27.44.28v47.6Z" transform="translate(15.47 -20.02)"/><path class="cls-1" d="M1102.41,323h-46.06l-12.74,35.28h-3.78L1074.55,263a1.74,1.74,0,0,1,1.82-1.26h6a1.74,1.74,0,0,1,1.82,1.26l34.72,95.34h-3.78Zm-1.12-3.08-17.08-47.32-2.8-7.84h-4.06l-2.8,7.84-17.08,47.32h43.82Z" transform="translate(15.47 -20.02)"/><path class="cls-1" d="M1199,264.78h-34V358.3h-3.5V264.78h-33.88V261.7H1199v3.08Z" transform="translate(15.47 -20.02)"/><path class="cls-1" d="M1282.73,355.22l0.28,2.52q-13.72.56-41.16,0.56A13.88,13.88,0,0,1,1227.57,344V276a13.88,13.88,0,0,1,14.28-14.28q27.44,0,41.16.56l-0.28,2.52h-40.18a11,11,0,0,0-11.48,11.48V305.1H1277V308h-45.92v35.7a11,11,0,0,0,11.48,11.48h40.18Z" transform="translate(15.47 -20.02)"/><path class="cls-1" d="M42.91,381.7v82a11,11,0,0,0,11.48,11.48H92.47v2.52q-12.88.56-38.78,0.56A13.88,13.88,0,0,1,39.41,464V381.7h3.5Z" transform="translate(15.47 -20.02)"/><path class="cls-1" d="M176.32,475.22l0.28,2.52q-13.72.56-41.16,0.56A13.88,13.88,0,0,1,121.16,464V396a13.88,13.88,0,0,1,14.28-14.28q27.44,0,41.16.56l-0.28,2.52H136.14a11,11,0,0,0-11.48,11.48V425.1h45.92V428H124.66v35.7a11,11,0,0,0,11.48,11.48h40.18Z" transform="translate(15.47 -20.02)"/><path class="cls-1" d="M261.16,443H215.1L202.36,478.3h-3.78L233.3,383a1.74,1.74,0,0,1,1.82-1.26h6A1.74,1.74,0,0,1,243,383l34.72,95.34H273.9ZM260,439.94L243,392.62l-2.8-7.84H236.1l-2.8,7.84-17.08,47.32H260Z" transform="translate(15.47 -20.02)"/><path class="cls-1" d="M368.26,478.3h-3.92L354,447.78q-4.48-12.88-15.82-12.88-19.18,0-28.7-.56v44H306V381.7q11.2-1.12,30.94-1.12,15.68,0,21.77,5.67t6.09,21.49q0,12.88-4.13,18.62T347,433.5v0.56q6.72,2.1,10.64,13.3Zm-58.8-46.62H336.9q13.58-.28,18.9-5.25t5.32-18.69q0-14-5.32-19t-18.9-5q-17.92,0-27.44.28v47.6Z" transform="translate(15.47 -20.02)"/><path class="cls-1" d="M469.62,381.7v94.5a1.86,1.86,0,0,1-2.1,2.1h-5.88a2.7,2.7,0,0,1-2.52-1.54l-44.8-82.46q-0.84-1.54-2.59-4.69t-2.59-4.83h-3.5V478.3h-3.5V383.8a1.86,1.86,0,0,1,2.1-2.1h5.46a2.54,2.54,0,0,1,2.52,1.54L456,463.88l6.16,11.34h3.92V381.7h3.5Z" transform="translate(15.47 -20.02)"/><path class="cls-1" d="M563.14,438.26H535.42v26.18h-2.94V438.26H504.76v-3.08h27.58V409h3.22v26.18h27.58v3.08Z" transform="translate(15.47 -20.02)"/><path class="cls-1" d="M655.68,474.94l0.84,2.52A119.91,119.91,0,0,1,630.2,480q-19.88,0-27.79-11.13T594.5,430q0-27.72,7.91-38.85T630.2,380a109.9,109.9,0,0,1,24.36,2.38l-0.84,2.52a149.68,149.68,0,0,0-23.52-1.68q-17.92,0-25,10.36T598.14,430q0,26,7.07,36.4t25,10.36A152,152,0,0,0,655.68,474.94Z" transform="translate(15.47 -20.02)"/><path class="cls-1" d="M690.33,391.15Q698.24,380,718.12,380t27.79,11.13q7.91,11.13,7.91,38.85t-7.91,38.85Q738,480,718.12,480t-27.79-11.13q-7.91-11.13-7.91-38.85T690.33,391.15Zm52.78,2.45q-7.07-10.36-25-10.36t-25,10.36Q686.06,404,686.06,430t7.07,36.4q7.07,10.36,25,10.36t25-10.36q7.07-10.36,7.07-36.4T743.11,393.6Z" transform="translate(15.47 -20.02)"/><path class="cls-1" d="M870.72,381.7h5.88a1.86,1.86,0,0,1,2.1,2.1l4.2,94.5h-3.5l-4.2-93.52h-3.36L840.2,468.64a1.74,1.74,0,0,1-1.82,1.26H832.5a1.74,1.74,0,0,1-1.82-1.26L799,384.78h-3.36l-4.2,93.52H788l4.2-94.5a1.86,1.86,0,0,1,2.1-2.1h5.88A1.74,1.74,0,0,1,802,383l26.74,70.7q0.84,2.24,2.45,6.58t2.45,6.58h3.64l5-13.44L868.9,383A1.73,1.73,0,0,1,870.72,381.7Z" transform="translate(15.47 -20.02)"/><path class="cls-1" d="M920.84,478.3V381.7q11.2-1.12,30.94-1.12,15.54,0,21.7,6t6.16,22.4q0,16.52-6.09,22.47t-21.77,5.95q-17.92,0-27.44-.56V478.3h-3.5Zm3.5-44.1h27.44q13.72-.28,19-5.39T976,409q0-14.7-5.32-19.95t-18.9-5.25q-17.92,0-27.44.28V434.2Z" transform="translate(15.47 -20.02)"/><path class="cls-1" d="M1067.7,475.22l0.28,2.52q-13.72.56-41.16,0.56A13.88,13.88,0,0,1,1012.54,464V396a13.88,13.88,0,0,1,14.28-14.28q27.44,0,41.16.56l-0.28,2.52h-40.18A11,11,0,0,0,1016,396.26V425.1H1062V428H1016v35.7a11,11,0,0,0,11.48,11.48h40.18Z" transform="translate(15.47 -20.02)"/><path class="cls-1" d="M1162.47,384.78h-34V478.3H1125V384.78h-33.88V381.7h71.4v3.08Z" transform="translate(15.47 -20.02)"/><path class="cls-1" d="M1246.2,475.22l0.28,2.52q-13.72.56-41.16,0.56A13.88,13.88,0,0,1,1191,464V396a13.88,13.88,0,0,1,14.28-14.28q27.44,0,41.16.56l-0.28,2.52H1206a11,11,0,0,0-11.48,11.48V425.1h45.92V428h-45.92v35.7A11,11,0,0,0,1206,475.22h40.18Z" transform="translate(15.47 -20.02)"/><path class="cls-1" d="M22.68,598.3V501.7q11.2-1.12,30.94-1.12,15.54,0,21.7,6T81.48,529q0,16.52-6.09,22.47t-21.77,5.95q-17.92,0-27.44-.56V598.3h-3.5Zm3.5-44.1H53.62q13.72-.28,19-5.39T77.84,529q0-14.7-5.32-19.95t-18.9-5.25q-17.92,0-27.44.28V554.2Z" transform="translate(15.47 -20.02)"/><path class="cls-1" d="M177.52,598.3H173.6l-10.36-30.52q-4.48-12.88-15.82-12.88-19.18,0-28.7-.56v44h-3.5V501.7q11.2-1.12,30.94-1.12,15.68,0,21.77,5.67T174,527.74q0,12.88-4.13,18.62t-13.65,7.14v0.56q6.72,2.1,10.64,13.3Zm-58.8-46.62h27.44q13.58-.28,18.9-5.25t5.32-18.69q0-14-5.32-19t-18.9-5q-17.92,0-27.44.28v47.6Z" transform="translate(15.47 -20.02)"/><path class="cls-1" d="M215.52,511.15Q223.43,500,243.31,500t27.79,11.13Q279,522.28,279,550t-7.91,38.85Q263.19,600,243.31,600t-27.79-11.13q-7.91-11.13-7.91-38.85T215.52,511.15Zm52.78,2.45q-7.07-10.36-25-10.36t-25,10.36Q211.25,524,211.25,550t7.07,36.4q7.07,10.36,25,10.36t25-10.36q7.07-10.36,7.07-36.4T268.3,513.6Z" transform="translate(15.47 -20.02)"/><path class="cls-1" d="M371.83,504.78h-34V598.3h-3.5V504.78H300.43V501.7h71.4v3.08Z" transform="translate(15.47 -20.02)"/><path class="cls-1" d="M401.16,511.15Q409.07,500,429,500t27.79,11.13q7.91,11.13,7.91,38.85t-7.91,38.85Q448.83,600,429,600t-27.79-11.13q-7.91-11.13-7.91-38.85T401.16,511.15Zm52.78,2.45q-7.07-10.36-25-10.36T404,513.6Q396.89,524,396.89,550T404,586.4q7.07,10.36,25,10.36t25-10.36Q461,576,461,550T453.94,513.6Z" transform="translate(15.47 -20.02)"/><path class="cls-1" d="M557.47,504.78h-34V598.3H520V504.78H486.07V501.7h71.4v3.08Z" transform="translate(15.47 -20.02)"/><path class="cls-1" d="M612.07,562.32v36h-3.5v-36l-33-60.62h3.92l25.2,46.62q3.64,6.72,5.32,9.52h0.7l2.45-4.34q1.89-3.36,2.73-5l25.2-46.76H645Z" transform="translate(15.47 -20.02)"/><path class="cls-1" d="M673.81,598.3V501.7q11.2-1.12,30.94-1.12,15.54,0,21.7,6t6.16,22.4q0,16.52-6.09,22.47t-21.77,5.95q-17.92,0-27.44-.56V598.3h-3.5Zm3.5-44.1h27.44q13.72-.28,19-5.39T729,529q0-14.7-5.32-19.95t-18.9-5.25q-17.92,0-27.44.28V554.2Z" transform="translate(15.47 -20.02)"/><path class="cls-1" d="M820.67,595.22l0.28,2.52q-13.72.56-41.16,0.56A13.88,13.88,0,0,1,765.51,584V516a13.88,13.88,0,0,1,14.28-14.28q27.44,0,41.16.56l-0.28,2.52H780.49A11,11,0,0,0,769,516.26V545.1h45.92V548H769v35.7a11,11,0,0,0,11.48,11.48h40.18Z" transform="translate(15.47 -20.02)"/><path class="cls-1" d="M908.17,558.26H880.45v26.18h-2.94V558.26H849.79v-3.08h27.58V529h3.22v26.18h27.58v3.08Z" transform="translate(15.47 -20.02)"/><path class="cls-1" d="M1004.07,504.78H970V598.3h-3.5V504.78H932.67V501.7h71.4v3.08Z" transform="translate(15.47 -20.02)"/><path class="cls-1" d="M1087.79,595.22l0.28,2.52q-13.72.56-41.16,0.56A13.88,13.88,0,0,1,1032.63,584V516a13.88,13.88,0,0,1,14.28-14.28q27.44,0,41.16.56l-0.28,2.52H1047.6a11,11,0,0,0-11.48,11.48V545.1H1082V548h-45.92v35.7a11,11,0,0,0,11.48,11.48h40.18Z" transform="translate(15.47 -20.02)"/><path class="cls-1" d="M1156.8,552.66l-21.42-2.94q-10.08-1.12-14.42-7t-4.34-17.78a46.83,46.83,0,0,1,1.61-13.65,12.9,12.9,0,0,1,5.74-7.56,23.14,23.14,0,0,1,8.75-3.08,91.54,91.54,0,0,1,13-.49q13.58,0.28,26.18,1.68l-0.42,2.66q-16.8-1.12-25.76-1.12-5.46,0-8.19.14a52.08,52.08,0,0,0-6.3.77,11.32,11.32,0,0,0-5.18,2,17.53,17.53,0,0,0-3.22,3.71,14.57,14.57,0,0,0-2.17,6,60.22,60.22,0,0,0-.56,9q0,10.64,3.5,15.47t11.76,6l21.42,2.94q10.64,1.26,15,7t4.41,18.34a42.36,42.36,0,0,1-1.33,11.41,21.16,21.16,0,0,1-3.5,7.42,13.21,13.21,0,0,1-6.16,4.13,35.16,35.16,0,0,1-8,1.82,103.72,103.72,0,0,1-10.43.42,246.76,246.76,0,0,1-28.56-1.54l0.42-2.66q14.56,1.12,28.28,1a89.87,89.87,0,0,0,12-.84,18.63,18.63,0,0,0,7.7-3,12.06,12.06,0,0,0,4.69-6.65,40.34,40.34,0,0,0,1.33-11.48q0-11.34-3.57-16.1T1156.8,552.66Z" transform="translate(15.47 -20.02)"/><path class="cls-1" d="M1271.32,504.78h-34V598.3h-3.5V504.78h-33.88V501.7h71.4v3.08Z" transform="translate(15.47 -20.02)"/><path class="cls-1" d="M39.69,715.22L40,717.74q-13.72.56-41.16,0.56a13.84,13.84,0,0,1-10.22-4.06A13.84,13.84,0,0,1-15.47,704V636a13.86,13.86,0,0,1,4.06-10.22A13.86,13.86,0,0,1-1.19,621.7q27.44,0,41.16.56l-0.28,2.52H-0.49A11.19,11.19,0,0,0-8.75,628,11.18,11.18,0,0,0-12,636.26V665.1H33.95V668H-12v35.7A11.18,11.18,0,0,0-8.75,712a11.18,11.18,0,0,0,8.26,3.22H39.69Z" transform="translate(15.47 -20.02)"/><path class="cls-1" d="M103,669.3H98.63l-29.82,49h-4.2l30.66-50.4L66.43,621.7h4.2l27.86,44.52h4.62L131,621.7h4.2l-28.84,46.2L137,718.3h-4.2Z" transform="translate(15.47 -20.02)"/><path class="cls-1" d="M167.92,718.3V621.7q11.2-1.12,30.94-1.12,15.54,0,21.7,6t6.16,22.4q0,16.52-6.09,22.47t-21.77,5.95q-17.92,0-27.44-.56V718.3h-3.5Zm3.5-44.1h27.44q13.72-.28,19-5.39T223.08,649q0-14.7-5.32-19.95t-18.9-5.25q-17.92,0-27.44.28V674.2Z" transform="translate(15.47 -20.02)"/><path class="cls-1" d="M314.78,715.22l0.28,2.52q-13.72.56-41.16,0.56A13.88,13.88,0,0,1,259.62,704V636A13.88,13.88,0,0,1,273.9,621.7q27.44,0,41.16.56l-0.28,2.52H274.6a11,11,0,0,0-11.48,11.48V665.1H309V668H263.12v35.7a11,11,0,0,0,11.48,11.48h40.18Z" transform="translate(15.47 -20.02)"/><path class="cls-1" d="M411.1,718.3h-3.92l-10.36-30.52Q392.34,674.9,381,674.9q-19.18,0-28.7-.56v44h-3.5V621.7q11.2-1.12,30.94-1.12,15.68,0,21.77,5.67t6.09,21.49q0,12.88-4.13,18.62t-13.65,7.14v0.56q6.72,2.1,10.64,13.3Zm-58.8-46.62h27.44q13.58-.28,18.9-5.25T404,647.74q0-14-5.32-19t-18.9-5q-17.92,0-27.44.28v47.6Z" transform="translate(15.47 -20.02)"/><path class="cls-1" d="M448.48,718.3H445V621.7h3.5v96.6Z" transform="translate(15.47 -20.02)"/><path class="cls-1" d="M542.84,715.22l0.28,2.52q-13.72.56-41.16,0.56A13.88,13.88,0,0,1,487.68,704V636A13.88,13.88,0,0,1,502,621.7q27.44,0,41.16.56l-0.28,2.52H502.66a11,11,0,0,0-11.48,11.48V665.1H537.1V668H491.18v35.7a11,11,0,0,0,11.48,11.48h40.18Z" transform="translate(15.47 -20.02)"/><path class="cls-1" d="M644.34,621.7v94.5a1.86,1.86,0,0,1-2.1,2.1h-5.88a2.7,2.7,0,0,1-2.52-1.54L589,634.3q-0.84-1.54-2.59-4.69t-2.59-4.83h-3.5V718.3h-3.5V623.8a1.86,1.86,0,0,1,2.1-2.1h5.46a2.54,2.54,0,0,1,2.52,1.54l43.82,80.64,6.16,11.34h3.92V621.7h3.5Z" transform="translate(15.47 -20.02)"/><path class="cls-1" d="M741.78,714.94l0.84,2.52A119.91,119.91,0,0,1,716.3,720q-19.88,0-27.79-11.13T680.6,670q0-27.72,7.91-38.85T716.3,620a109.9,109.9,0,0,1,24.36,2.38l-0.84,2.52a149.81,149.81,0,0,0-23.52-1.68q-17.92,0-25,10.36T684.24,670q0,26,7.07,36.4t25,10.36A151.87,151.87,0,0,0,741.78,714.94Z" transform="translate(15.47 -20.02)"/><path class="cls-1" d="M828.44,715.22l0.28,2.52q-13.72.56-41.16,0.56A13.88,13.88,0,0,1,773.28,704V636a13.88,13.88,0,0,1,14.28-14.28q27.44,0,41.16.56l-0.28,2.52H788.26a11,11,0,0,0-11.48,11.48V665.1H822.7V668H776.78v35.7a11,11,0,0,0,11.48,11.48h40.18Z" transform="translate(15.47 -20.02)"/><path class="cls-1" d="M915.94,678.26H888.22v26.18h-2.94V678.26H857.56v-3.08h27.58V649h3.22v26.18h27.58v3.08Z" transform="translate(15.47 -20.02)"/><path class="cls-1" d="M1008.48,714.94l0.84,2.52A119.91,119.91,0,0,1,983,720q-19.88,0-27.79-11.13T947.29,670q0-27.72,7.91-38.85T983,620a109.9,109.9,0,0,1,24.36,2.38l-0.84,2.52A149.81,149.81,0,0,0,983,623.24q-17.92,0-25,10.36T950.94,670q0,26,7.07,36.4t25,10.36A151.87,151.87,0,0,0,1008.48,714.94Z" transform="translate(15.47 -20.02)"/><path class="cls-1" d="M1043.13,631.15Q1051,620,1070.92,620t27.79,11.13q7.91,11.13,7.91,38.85t-7.91,38.85Q1090.79,720,1070.92,720t-27.79-11.13q-7.91-11.13-7.91-38.85T1043.13,631.15Zm52.78,2.45q-7.07-10.36-25-10.36t-25,10.36q-7.07,10.36-7.07,36.4t7.07,36.4q7.07,10.36,25,10.36t25-10.36Q1103,696,1103,670T1095.91,633.6Z" transform="translate(15.47 -20.02)"/><path class="cls-1" d="M1142.87,718.3V621.7q16.66-1.26,32.06-1.26,19.46,0,27.3,11.13t7.84,38.43q0,27.3-7.84,38.43t-27.3,11.13Q1159.81,719.56,1142.87,718.3Zm3.5-94.08v91.7q25.2,0.42,28.56.42,17.5,0,24.5-10.29t7-36.05q0-25.76-7-36t-24.5-10.29Q1163.45,623.66,1146.37,624.22Z" transform="translate(15.47 -20.02)"/><path class="cls-1" d="M1300.65,715.22l0.28,2.52q-13.72.56-41.16,0.56A13.88,13.88,0,0,1,1245.49,704V636a13.88,13.88,0,0,1,14.28-14.28q27.44,0,41.16.56l-0.28,2.52h-40.18A11,11,0,0,0,1249,636.26V665.1h45.92V668H1249v35.7a11,11,0,0,0,11.48,11.48h40.18Z" transform="translate(15.47 -20.02)"/></svg>